<?xml version="1.0" encoding="UTF-8" standalone="no" ?>
<!DOCTYPE svg PUBLIC "-//W3C//DTD SVG 1.1//EN" "http://www.w3.org/Graphics/SVG/1.1/DTD/svg11.dtd">
<svg xmlns="http://www.w3.org/2000/svg" xmlns:xlink="http://www.w3.org/1999/xlink" version="1.1" width="640" height="640" viewBox="0 0 640 640" xml:space="preserve">
<desc>Created with Fabric.js 4.6.0</desc>
<defs>
</defs>
<g transform="matrix(1 0 0 1 283.37 188)" id="Lxuw2tV06n7lBmYZBtvw1"  >
<path style="stroke: rgb(198,59,116); stroke-width: 0; stroke-dasharray: none; stroke-linecap: butt; stroke-dashoffset: 0; stroke-linejoin: miter; stroke-miterlimit: 4; fill: rgb(252,189,48); fill-rule: nonzero; opacity: 1;" vector-effect="non-scaling-stroke"  transform=" translate(-102.08, -117.88)" d="M 33.97811 118.33565 C 33.97811 101.59612 47.563810000000004 88.01042 64.30334 88.01042 C 79.3341 88.01042 91.82206000000001 98.96404 94.21497000000001 113.31903 C 96.7964 113.01958 99.42200000000001 112.86565 102.08333 112.86565 L 102.08334 112.86565 C 104.56477000000001 112.86565 107.01513000000001 112.99948 109.42760000000001 113.2603 C 111.65264000000002 98.70866 124.23284000000001 87.55041 139.40335000000002 87.55041 C 156.14288000000002 87.55041 169.72858000000002 101.13611 169.72858000000002 117.87564 C 169.72858000000002 127.73475 165.01587000000004 136.49983 157.72175000000001 142.03959 C 163.72536000000002 150.70175 167.75885000000002 160.83134 169.17225000000002 171.77839 C 180.35588 157.39434 187.01793000000004 139.32326 187.01793000000004 119.70564 C 187.01793000000004 72.82175000000001 148.96724000000003 34.771060000000006 102.08335000000004 34.771060000000006 C 55.19946000000004 34.771060000000006 17.14877000000004 72.82175000000001 17.14877000000004 119.70564 C 17.14877000000004 139.32326 23.810820000000042 157.39432 34.99443000000004 171.77837 C 36.37901000000004 161.05462 40.277870000000036 151.11533 46.08001000000004 142.57148999999998 C 38.731800000000035 137.03584999999998 33.97812000000004 128.23751 33.97812000000004 118.33563999999998 z M 92.76019 145.36567 C 92.75886999999999 145.36567 92.75755 145.36567 92.75622999999999 145.36567 C 92.75568999999999 145.36567 88.12722999999998 145.36567 82.73333999999998 145.36567 C 82.73333999999998 145.36533 82.73333999999998 135.34308 82.73333999999998 135.34276 C 82.73333999999998 135.34242 82.73333999999998 135.20946 82.73333999999998 135.20913 L 82.73059999999998 135.20913 C 82.66046999999998 133.50462 81.25496999999999 132.14274999999998 79.53333999999998 132.14274999999998 C 77.81168999999998 132.14274999999998 76.40620999999999 133.50462 76.33607999999998 135.20913 L 76.33333999999998 135.20913 C 76.33333999999998 135.21096999999997 76.33333999999998 135.34091999999998 76.33333999999998 135.34276 C 76.33333999999998 135.34459999999999 76.33333999999998 145.36382 76.33333999999998 145.36566 C 70.88250999999998 145.36566 66.17737999999997 145.36566 66.17682999999998 145.36566 L 66.17682999999998 145.36839999999998 C 64.47230999999998 145.43851999999998 63.11044999999998 146.84401999999997 63.11044999999998 148.56564999999998 C 63.11044999999998 150.28728999999998 64.47231999999998 151.69277999999997 66.17682999999998 151.76289999999997 L 66.17682999999998 151.76563999999996 L 76.33333999999998 151.76563999999996 C 76.33333999999998 151.76659999999995 76.33333999999998 161.78757999999996 76.33333999999998 161.78853999999995 C 76.33333999999998 161.78949999999995 76.33333999999998 161.92118999999997 76.33333999999998 161.92214999999996 L 76.33607999999998 161.92214999999996 C 76.40619999999998 163.62666999999996 77.81169999999999 164.98852999999997 79.53332999999998 164.98852999999997 C 81.25496999999997 164.98852999999997 82.66045999999997 163.62665999999996 82.73057999999997 161.92214999999996 L 82.73331999999998 161.92214999999996 C 82.73331999999998 161.92054999999996 82.73331999999998 161.79012999999995 82.73331999999998 161.78853999999995 C 82.73331999999998 161.78693999999996 82.73331999999998 151.76723999999996 82.73331999999998 151.76563999999996 C 82.73463999999998 151.76563999999996 92.75488999999997 151.76563999999996 92.75620999999998 151.76563999999996 C 92.75752999999999 151.76563999999996 92.88851999999999 151.76563999999996 92.88983999999998 151.76563999999996 L 92.88983999999998 151.76289999999997 C 94.59434999999998 151.69276999999997 95.95621999999997 150.28726999999998 95.95621999999997 148.56563999999997 C 95.95621999999997 146.84398999999996 94.59434999999998 145.43850999999998 92.88983999999998 145.36837999999997 L 92.88983999999998 145.36563999999998 z M 131.72341 136.95013 C 131.72248 136.95106 131.72154 136.952 131.72061 136.95293 C 131.72023 136.95331000000002 128.44741 140.22613 124.63336 144.04018000000002 C 124.63311999999999 144.03994000000003 117.54632 136.95314000000002 117.54608999999999 136.95291000000003 C 117.54584999999999 136.95267000000004 117.45182999999999 136.85865000000004 117.4516 136.85842000000002 L 117.44966 136.86036000000001 C 116.1948 135.70468000000002 114.23798 135.73553 113.0206 136.95291 C 111.80321 138.1703 111.77237 140.12711000000002 112.92805 141.38197 L 112.92611 141.38391 C 112.92741 141.38520999999997 113.0193 141.47709999999998 113.02059999999999 141.4784 C 113.02189999999999 141.47969999999998 120.10655999999999 148.56436 120.10785999999999 148.56565999999998 C 116.25353999999999 152.41997999999998 112.92651 155.74701 112.92611999999998 155.74739999999997 L 112.92805999999999 155.74933999999996 C 111.77236999999998 157.00419999999997 111.80321999999998 158.96101999999996 113.02059999999999 160.17839999999995 C 114.23798 161.39577999999995 116.19479999999999 161.42662999999996 117.44966 160.27093999999997 L 117.4516 160.27287999999996 L 124.63334 153.09113999999997 C 124.63402 153.09181999999996 131.71992 160.17771999999997 131.7206 160.17839999999995 C 131.72127999999998 160.17907999999994 131.81439999999998 160.27219999999994 131.81508 160.27287999999996 L 131.81701999999999 160.27093999999997 C 133.07188 161.42662999999996 135.0287 161.39577999999997 136.24607999999998 160.17839999999995 C 137.46345999999997 158.96101999999996 137.49430999999998 157.00419999999994 136.33862 155.74933999999996 L 136.34055999999998 155.74739999999997 C 136.33943 155.74626999999998 136.24721 155.65404999999998 136.24607999999998 155.65291999999997 C 136.24495 155.65178999999998 129.15994999999998 148.56678999999997 129.15882 148.56565999999998 C 129.15975 148.56472999999997 136.24514 141.47933999999998 136.24607 141.47840999999997 C 136.247 141.47747999999996 136.33963 141.38484999999997 136.34056 141.38391999999996 L 136.33862000000002 141.38197999999997 C 137.4943 140.12711999999996 137.46345000000002 138.17029999999997 136.24607000000003 136.95291999999998 C 135.02868000000004 135.73552999999998 133.07187000000002 135.70468999999997 131.81701000000004 136.86037 L 131.81507000000005 136.85843 z M 204.16662 58.93778 L 204.16666999999998 176.8135 L 102.08327999999999 235.75132000000002 L 0.00004999999998744897 176.81354000000002 L -1.2551029280553211e-14 58.937820000000016 L 102.08338999999998 1.4210854715202004e-14 z" stroke-linecap="round" />
</g>
</svg>